<?xml version="1.0" standalone="no"?>
<!DOCTYPE svg PUBLIC "-//W3C//DTD SVG 20010904//EN"
 "http://www.w3.org/TR/2001/REC-SVG-20010904/DTD/svg10.dtd">
<svg version="1.0" xmlns="http://www.w3.org/2000/svg"
 width="260.000000pt" height="260.000000pt" viewBox="0 0 260.000000 260.000000"
 preserveAspectRatio="xMidYMid meet">
<metadata>
Created by potrace 1.14, written by Peter Selinger 2001-2017
</metadata>
<g transform="translate(0.000000,260.000000) scale(0.100000,-0.100000)"
fill="#000000" stroke="none">
<path d="M1385 2584 c-306 -28 -537 -91 -755 -206 -698 -369 -819 -1009 -320
-1690 96 -130 310 -347 423 -427 174 -125 366 -207 536 -232 361 -52 742 155
1002 543 216 323 322 648 322 983 0 610 -405 1001 -1063 1029 -58 2 -123 2
-145 0z m231 -501 c-3 -43 -9 -96 -12 -119 l-6 -41 111 -102 c86 -78 116 -101
131 -96 47 15 128 -56 145 -127 4 -16 42 -59 96 -109 75 -68 90 -86 87 -108
-5 -43 -33 -37 -101 23 l-63 55 -12 -51 c-18 -78 -91 -158 -144 -158 -23 0
-25 -8 -44 -243 l-17 -208 -41 -28 c-104 -71 -364 -204 -537 -274 -30 -12 -47
-33 -100 -123 l-64 -109 -6 185 c-4 102 -7 200 -8 218 0 18 -6 32 -14 32 -7 0
-29 11 -49 25 -28 19 -51 53 -101 152 -145 286 -193 581 -129 782 15 46 18 70
11 88 -5 15 -5 22 0 18 15 -9 212 41 222 56 14 22 11 37 -10 48 -14 8 -40 3
-106 -19 -48 -16 -93 -34 -100 -40 -20 -17 -25 0 -25 96 0 90 27 215 50 229 5
3 42 -6 82 -19 204 -68 548 -58 694 22 65 35 68 32 60 -55z"/>
<path d="M1462 1991 c2 -7 7 -12 11 -12 12 1 9 15 -3 20 -7 2 -11 -2 -8 -8z"/>
<path d="M1200 1855 c-7 -8 -10 -21 -7 -30 7 -16 12 -18 151 -40 102 -16 121
-13 114 21 -2 13 -26 23 -93 41 -105 26 -148 29 -165 8z"/>
<path d="M1594 1789 c4 -24 19 -85 33 -136 l26 -91 -19 -49 c-22 -52 -21 -78
2 -87 40 -15 78 43 86 130 3 34 14 76 23 94 l17 33 -68 64 c-38 35 -78 68 -88
74 -18 11 -18 9 -12 -32z"/>
<path d="M856 1755 c-37 -37 -26 -90 21 -101 32 -8 55 5 67 39 20 54 -48 102
-88 62z m44 -25 c0 -5 -9 -10 -21 -10 -11 0 -17 5 -14 10 3 6 13 10 21 10 8 0
14 -4 14 -10z"/>
<path d="M1260 1750 c-11 -11 -20 -25 -20 -31 0 -15 21 -53 34 -61 34 -23 86
8 86 50 0 28 -34 62 -60 62 -11 0 -29 -9 -40 -20z m50 -10 c0 -13 -28 -25 -38
-16 -3 4 0 11 8 16 20 13 30 12 30 0z"/>
<path d="M1001 1698 c-46 -109 -75 -251 -64 -312 8 -40 49 -68 95 -64 49 4 52
21 4 29 -65 11 -72 25 -59 127 6 50 24 122 42 167 16 43 28 82 25 87 -11 18
-25 6 -43 -34z"/>
<path d="M1147 1413 c-3 -5 -2 -23 0 -40 6 -35 29 -45 40 -17 11 29 -26 82
-40 57z"/>
<path d="M1236 1124 c-94 -50 -214 -51 -311 -4 -78 38 -93 15 -16 -24 63 -32
150 -46 225 -36 85 12 201 75 159 87 -4 1 -30 -9 -57 -23z"/>
</g>
</svg>
