<svg xmlns="http://www.w3.org/2000/svg" viewBox="0 0 904.16 894.69"><defs><style>.cls-1{isolation:isolate;}.cls-2{fill:#5551ff;}.cls-3{fill:#1f1f1f;}.cls-4{fill:#141414;}.cls-5{fill:#2b2b2b;}.cls-6{fill:#a0a0a0;}.cls-7{opacity:0.08;}.cls-8{fill:#bfbfbf;}.cls-12,.cls-13,.cls-15,.cls-20,.cls-9{fill:#fff;}.cls-14,.cls-9{opacity:0.1;}.cls-10,.cls-11{fill:#8f8f8f;}.cls-11{opacity:0.66;mix-blend-mode:multiply;}.cls-12{opacity:0.15;}.cls-15{opacity:0.06;}.cls-16{fill:#ff6766;}.cls-17{fill:#ffd476;}.cls-18{fill:#fa0;}.cls-19{fill:#ccc;}.cls-20{opacity:0.33;}</style></defs><g class="cls-1"><g id="mr_wolpe" data-name="mr wolpe"><path id="bg_shield" data-name="bg shield" class="cls-2" d="M947.64,507.25C930,613.42,884.52,710.33,827.24,786.11a573.15,573.15,0,0,1-49.93,57.79c-81.1,81.18-174.38,122.55-274.67,112.36-39.42-4-77.77-15.45-114.72-32.71-.26-.12-3.61-1.72-3.64-1.72C328.61,895.19,276.14,855.38,228,807.94q-2.75-2.76-5.46-5.55C144.94,722.86,79.71,623,57.64,515.26,35.05,404.83,66.88,304.34,148,223.05,227.94,142.51,357.17,81.16,502.64,66.26s274.7,23.36,354.65,103.88C938.4,249.91,970.23,371.92,947.64,507.25Z" transform="translate(-50.56 -63.09)"/><g id="head"><g id="shirt"><path id="shoulders" class="cls-3" d="M827.24,786.11a573.15,573.15,0,0,1-49.93,57.79c-81.1,81.18-174.38,122.55-274.67,112.36-39.42-4-77.77-15.45-114.72-32.71-.26-.12-3.61-1.72-3.64-1.72C328.61,895.19,276.14,855.38,228,807.94q-2.75-2.76-5.46-5.55L266,790.11q40.46-11.43,80.92-22.84h0c7.6-15.08,13.35-26.35,13.66-27v0c14-5.65,30.55-12.42,46.6-19,0,0,0,.09,0,.14,39.74-15.29,197-85.75,267.25-71,20,5.79,37,14.67,48.09,35.07a255.88,255.88,0,0,1,18.79,44.72q3.07,10.18,6.14,20.37v0c.86,2.93,1.62,6.1,2.29,9.17A645.76,645.76,0,0,1,827.24,786.11Z" transform="translate(-50.56 -63.09)"/><path id="right_collar_shadow" data-name="right collar shadow" class="cls-4" d="M381.56,820.68a290.92,290.92,0,0,0-31.66,5q-18.37,3.89-36.28,9.49c7.93-17.21,22.48-46.4,33.3-67.86h0c7.6-15.08,13.35-26.35,13.66-27,3.12,6.2,6.55,16.12,9.9,28.37A523.27,523.27,0,0,1,381.56,820.68Z" transform="translate(-50.56 -63.09)"/><path id="right_collar" data-name="right collar" class="cls-5" d="M413.48,875q-8.7,14.79-17.39,29.6c-2.84,4.12-5.66,8.25-8.5,12.38l-.52-.24c.06-.35.11-.74.15-1.19,2.76-26.21-.27-61.94-5.66-94.83a523.27,523.27,0,0,0-11.07-52c-3.35-12.25-6.78-22.17-9.9-28.37v0c14-5.65,30.55-12.42,46.6-19,0,0,0,.09,0,.14q.63,6.57,1.18,13.13,3,34.95,4.28,70c0,.75,0,1.5,0,2.25a8.61,8.61,0,0,0,.16,1.8Q413.9,841.79,413.48,875Z" transform="translate(-50.56 -63.09)"/><path id="left_collar" data-name="left collar" class="cls-5" d="M752.56,775.32s-29.11,27.14-40.18,35.25l-39.54,29c-40.09,29.37-124,89.62-152.88,110.05-6.29,4.44-10,7-10.15,7-.29-2.55-.59-5.12-.93-7.7a578.6,578.6,0,0,0-11.79-62.47c-2.52-10.32-5.28-20.48-8.2-30.31-3.7-12.44-7.52-24.81-12.29-36.81a198.38,198.38,0,0,0-9.41-20.45q-1.2-2.25-2.54-4.41l.24-.12,1.59-.62q27.07-10.56,53.56-22.53l1.31-.59q10.62-4.82,21.14-9.86c1.3-.61,2.59-1.23,3.88-1.86q10.62-5.11,21.12-10.48a1139.52,1139.52,0,0,0,99.22-57q3.09-2,6.15-4,.6-18.45,1.59-36.89c20,5.79,37,14.67,48.09,35.07a255.88,255.88,0,0,1,18.79,44.72q3.07,10.18,6.14,20.37v0c.86,2.93,1.62,6.1,2.29,9.17C751.53,768,752.56,775.32,752.56,775.32Z" transform="translate(-50.56 -63.09)"/><path id="left_collar_shadow" data-name="left collar shadow" class="cls-4" d="M497.09,886.43c-17.57,4.48-35.33,8.64-52.66,14-17,5.22-33.4,12.16-49.48,19.8l-2.26,1.08c-1.29.62-3,1.45-4.77,2.28l-.77-.36c-.77-.35-1.53-.71-2.29-1.08a7.42,7.42,0,0,1,1.33-3.12l.31-.46,1.09-1.59c2.84-4.13,5.66-8.26,8.5-12.38q8.7-14.8,17.39-29.6,20.83-35.48,41.69-71a27.62,27.62,0,0,1,6.81-7.88,15.85,15.85,0,0,1,2.67-1.68q1.34,2.16,2.54,4.41a198.38,198.38,0,0,1,9.41,20.45c4.77,12,8.59,24.37,12.29,36.81C491.81,866,494.57,876.11,497.09,886.43Z" transform="translate(-50.56 -63.09)"/></g><path id="neck" class="cls-6" d="M710.82,363.64C684,348.2,653,374.35,648.4,401.5c-2.86,10.5-2.49,23.87-2.37,34.3-5.17,10.05-10.43,24.56-20.61,30.23-1.72,38.74-12.16,75.79-32.75,109-10.82,49.64-32.88,95.8-76.86,124.75-41.32,27.56-65.79,9.33-108.63,11.55,4.88,51.07,6.95,112.36,6.3,163.65q20.83-35.48,41.69-71c2.25-3.78,5.49-7.54,9.48-9.56,0,0,0,0,0,0A1127.94,1127.94,0,0,0,672.86,687.37c3.46-107.14,18.68-215.57,41.5-320.43C714.18,366.83,711,363.73,710.82,363.64Z" transform="translate(-50.56 -63.09)"/><path id="chin_shadow" data-name="chin shadow" class="cls-7" d="M627.8,487c-1.61,19.86-5.58,39.61-10.07,58.95-3.8,16.41-7.82,32.78-11.75,49.16-3.62,15.13-7,30.36-11.88,45.14-5.22,15.79-12,30.22-21.91,43.65-8.47,11.47-19.54,21.31-31.25,29.35-25,17.18-55.54,25.45-85.7,26.13-1.06,0-2.12,0-3.17,0a209.18,209.18,0,0,1-40.56-3.88,14.09,14.09,0,0,1-2.92-.87c-.37-4.38-1.36-15.06-1.37-15.11,1-.39,22.7,1,31.13,2.12a123.73,123.73,0,0,0,17.24,1.12,115,115,0,0,0,63.22-19c44-29,66-76.11,76.86-125.75A227.15,227.15,0,0,0,627.8,487Z" transform="translate(-50.56 -63.09)"/><g id="face"><path id="face-2" data-name="face" class="cls-8" d="M686.87,219.69c-9.54-41-43-68.63-81.36-81.85C548.05,118,486,111.7,439.14,125.08c-49.48,14.12-90.64,46.71-114.57,92.5q-2.83,5.41-5.34,11.08c-11.9,26.93-17.55,55.8-13.76,85.23,1,7.55,1.44,14.92,2.28,22.15h0c.16,1.49.35,3,.56,4.44h0c0,.25.07.51.11.76h0c.32,2.18.7,4.34,1.15,6.5h0a70,70,0,0,0,5.34,16.13c.44.92.91,1.82,1.37,2.73A230,230,0,0,0,299,480.83c.51,5.55,1.16,11.08,1.89,16.56,7.31,54.56,23,108.48,49.39,157,9.54,17.56,17.55,39.14,31.7,52.72l.09.08c1.85,1.61,3.73,3.17,5.66,4.7,0,0,0,0,.08.06a45.68,45.68,0,0,0,4.67,2.92c4.09,2.69,9.1,4.1,14.5,4.88,1,.14,2,.27,3.1.37,9.51,1,19.85.39,28.28,1.52a123.73,123.73,0,0,0,17.24,1.12,115,115,0,0,0,63.22-19c44-29,66-76.11,76.86-125.75a227.15,227.15,0,0,0,32.13-91c.15-1.16.29-2.32.41-3.48.18-1.59.35-3.18.49-4.77.06-.65.12-1.31.17-2l.18-2.34c.1-1.34.18-2.68.25-4,.05-.78.08-1.57.12-2.36h0c.1-2.24.17-4.47.2-6.71q0-1.71,0-3.42c0-7.24-.34-14.49-1-21.71-.1-1.12-.22-2.23-.34-3.35q2.18-18.51,3.22-37.14a15.59,15.59,0,0,0-3.79-10.85q.94-5.36,1.86-10.71,2.67-15.39,5.29-30.79l2.85-16.91h0c4.08-24.24,46.17-89.61,48.24-94.63A20.07,20.07,0,0,0,686.87,219.69Z" transform="translate(-50.56 -63.09)"/><path id="lower_face_shadow" data-name="lower face shadow" class="cls-7" d="M622.16,469a11.22,11.22,0,0,1-6-2.72,97.44,97.44,0,0,1-7.91,24.27c-43.9,81-104.62,58-177.66,39.7a150,150,0,0,0-42.3,1.33c-18.44,3.11-34.82,12.69-52,19.13-5.06,1.65-9.85-4.07-13.17-7.57-13.17-13.88-17.28-35-20.69-53.15-3.08-16.38-5.52-33.08-3.91-49.48l-.18-.15a230.54,230.54,0,0,0,.62,40.52c.51,5.55,1.16,11.08,1.89,16.56,7.31,54.56,23,108.48,49.39,157,9.54,17.56,17.55,39.14,31.7,52.72l.09.08c1.85,1.61,3.73,3.17,5.66,4.7,0,0,0,0,.08.06a45.68,45.68,0,0,0,4.67,2.92c4.09,2.69,9.1,4.1,14.5,4.88,1,.14,2,.27,3.1.37,9.51,1,19.85.39,28.28,1.52a123.73,123.73,0,0,0,17.24,1.12,115,115,0,0,0,63.22-19c44-29,66-76.11,76.86-125.75a227.15,227.15,0,0,0,32.13-91c.5-6.19,1.73-13.31,1.71-19.51C627.62,468.15,624.55,469.31,622.16,469Z" transform="translate(-50.56 -63.09)"/></g><g id="chin_dimple" data-name="chin dimple"><path id="chin_dimple_shape" data-name="chin dimple shape" class="cls-8" d="M447.51,650.29c.06,5.38-5.31,11.08-10.15,7.29-6.52-5.11-15.53-4.72-22.1,1.06-5.28,4.65-11.21-1.82-10-7.61-4.93-2.1-7.74-8.91-2.17-12.83.67-.47,1.34-.92,2-1.33a7.3,7.3,0,0,1,2.57-5.39c11.44-10.06,25.9-10.85,37.3-1.92a6.81,6.81,0,0,1,2.48,6.52c.62.35,1.24.73,1.85,1.12C455.09,640.94,452.46,648.08,447.51,650.29Z" transform="translate(-50.56 -63.09)"/><path id="chin_dimple_shape-2" data-name="chin dimple shape" class="cls-7" d="M447.51,650.29c.06,5.38-5.31,11.08-10.15,7.29-6.52-5.11-15.53-4.72-22.1,1.06-5.28,4.65-11.21-1.82-10-7.61-4.93-2.1-7.74-8.91-2.17-12.83.67-.47,1.34-.92,2-1.33a7.3,7.3,0,0,1,2.57-5.39c11.44-10.06,25.9-10.85,37.3-1.92a6.81,6.81,0,0,1,2.48,6.52c.62.35,1.24.73,1.85,1.12C455.09,640.94,452.46,648.08,447.51,650.29Z" transform="translate(-50.56 -63.09)"/><path id="chin_hilite" data-name="chin hilite" class="cls-9" d="M447.43,636.08a40.9,40.9,0,0,0-42.35.79,7.3,7.3,0,0,1,2.57-5.39c11.44-10.06,25.9-10.85,37.3-1.92A6.81,6.81,0,0,1,447.43,636.08Z" transform="translate(-50.56 -63.09)"/><path id="chin_dimple_shadow" data-name="chin dimple shadow" class="cls-6" d="M447.51,650.29c.06,5.38-5.31,11.08-10.15,7.29-6.52-5.11-15.53-4.72-22.1,1.06-5.28,4.65-11.21-1.82-10-7.61a7.59,7.59,0,0,0,7.56-.87,25,25,0,0,1,27.39-.51A7.51,7.51,0,0,0,447.51,650.29Z" transform="translate(-50.56 -63.09)"/><path id="chin_dimple-2" data-name="chin dimple" class="cls-10" d="M447.51,650.29a7.51,7.51,0,0,1-7.34-.64,25,25,0,0,0-27.39.51,7.59,7.59,0,0,1-7.56.87c-4.93-2.1-7.74-8.91-2.17-12.83.67-.47,1.34-.92,2-1.33a40.9,40.9,0,0,1,42.35-.79c.62.35,1.24.73,1.85,1.12C455.09,640.94,452.46,648.08,447.51,650.29Z" transform="translate(-50.56 -63.09)"/></g><g id="mouth"><path id="mouth-2" data-name="mouth" class="cls-10" d="M502.9,575.05C481.6,590,455.08,598.48,427.13,599a135.65,135.65,0,0,1-76.48-22.33c-4.81-3.46-2.9-8.18-.18-10.43,3.22-2.66,7.81-.77,11.09,1.4C399.43,592.75,455,592,492,566,504.14,557.21,510.49,569.72,502.9,575.05Z" transform="translate(-50.56 -63.09)"/><path id="mouth-3" data-name="mouth" class="cls-11" d="M502.9,575.05C481.6,590,455.08,598.48,427.13,599a135.65,135.65,0,0,1-76.48-22.33c-4.81-3.46-2.9-8.18-.18-10.43,3.22-2.66,7.81-.77,11.09,1.4C399.43,592.75,455,592,492,566,504.14,557.21,510.49,569.72,502.9,575.05Z" transform="translate(-50.56 -63.09)"/><path id="upper_lip_hilite" data-name="upper lip hilite" class="cls-8" d="M429.34,556.56c-7.38,4.28-14.75,4.29-22.17.21-2.83-1.56-3.44-6.8-2-9.88,1.7-3.7,4.9-4.15,7.73-2.59a11,11,0,0,0,10.76-.21c2.81-1.63,6.06-1.06,7.73,2.59C432.8,549.81,432.14,554.93,429.34,556.56Z" transform="translate(-50.56 -63.09)"/><path id="upper_lip_hilite-2" data-name="upper lip hilite" class="cls-9" d="M429.34,556.56c-7.38,4.28-14.75,4.29-22.17.21-2.83-1.56-3.44-6.8-2-9.88,1.7-3.7,4.9-4.15,7.73-2.59a11,11,0,0,0,10.76-.21c2.81-1.63,6.06-1.06,7.73,2.59C432.8,549.81,432.14,554.93,429.34,556.56Z" transform="translate(-50.56 -63.09)"/></g><g id="dimple"><path id="dimple_hilite" data-name="dimple hilite" class="cls-9" d="M552.08,541a37.19,37.19,0,0,0-13.37-13.73,8.38,8.38,0,0,0-8.5-.47,7.53,7.53,0,0,1,.17-1.2c.76-3.32,4.37-6.89,7.57-6.43,8.41,1.2,14.23,5.72,17.63,13.45C556.74,535.28,554.67,539.15,552.08,541Z" transform="translate(-50.56 -63.09)"/><path id="dimple-2" data-name="dimple" class="cls-10" d="M541.4,555.4a22.08,22.08,0,0,0-4-8.81,26.79,26.79,0,0,0-7.9-6.94c-3.62-2.15-3.91-7.67-1.6-10.79a7.48,7.48,0,0,1,2.28-2.06h0a8.38,8.38,0,0,1,8.5.47A37.19,37.19,0,0,1,552.08,541c.2.36.4.73.59,1.1a42.81,42.81,0,0,1,4,11.23C558.71,563.06,543.42,565.1,541.4,555.4Z" transform="translate(-50.56 -63.09)"/></g><g id="cheeks"><path id="right_cheek_hilite" data-name="right cheek hilite" class="cls-9" d="M463,421.14a88.68,88.68,0,0,1,100.72,18.09c5.05,5.16-2.19,13.86-7.29,8.64a77.81,77.81,0,0,0-89.48-16.13C460.3,434.86,456.43,424.23,463,421.14Z" transform="translate(-50.56 -63.09)"/><path id="left_cheek_hilite" data-name="left cheek hilite" class="cls-9" d="M301.51,430a66.45,66.45,0,0,1,60.25-10.37c6.91,2.22,4,13.14-3,10.91a55.9,55.9,0,0,0-51.54,9.22C301.45,444.17,295.82,434.34,301.51,430Z" transform="translate(-50.56 -63.09)"/></g><g id="eyes"><path id="left_brow_hilite" data-name="left brow hilite" class="cls-12" d="M466.3,302a550.3,550.3,0,0,1,103.59,24c6.8,2.29,4.71,13.42-2.19,11.09a551.06,551.06,0,0,0-103.59-24C456.88,312.19,459.09,301.09,466.3,302Z" transform="translate(-50.56 -63.09)"/><path id="right_brow_hilite" data-name="right brow hilite" class="cls-12" d="M307.5,337.53c.81-6.68,5.22-10.49,11.05-13.3,7.23-3.48,14.8-6.35,22.34-9.1a273.21,273.21,0,0,1,47.41-12.45c7.16-1.23,9.81,9.76,2.63,11a285.22,285.22,0,0,0-38.48,9.4c-6.14,1.95-12.17,4.18-18.14,6.6-2.92,1.18-5.8,2.44-8.67,3.72-1.66.74-6.57,2.3-6.84,4.52C317.93,345.1,306.62,344.77,307.5,337.53Z" transform="translate(-50.56 -63.09)"/><path id="right_eye_socket" data-name="right eye socket" class="cls-6" d="M324.81,346.76A303.5,303.5,0,0,1,397,331.85c9.56-.74,17.88,6.32,17.11,15.56-.51,6.27-1.69,8.72-4.08,11.78-3.82,3.74-6.65,5-12.51,7.78a109.45,109.45,0,0,1-68,7.71c-6.49-1.4-11.82-5.12-13-12.11C315.45,356.64,318.66,348.8,324.81,346.76Z" transform="translate(-50.56 -63.09)"/><path id="left_eye_socket" data-name="left eye socket" class="cls-6" d="M437.88,343.51c3.32-6.27,10.05-9.41,18.6-11.54,5.2-1.3,11.46-1.06,16.94-1.09,6,0,12,.26,17.92.75,24.62,2,43.6,5.88,65,15.05,2.44,1,7.9,3,11.52,6.11,3,2.24,4.09,5.7,4.44,9.27,1.26,10.57-10.38,18.89-23.42,21.61-12.86,2.69-26.82.09-39.65-1.87-12.08-1.84-24-4.33-35.63-7.27-13-3.29-25.72-6.57-33.55-15.22A14.15,14.15,0,0,1,437.88,343.51Z" transform="translate(-50.56 -63.09)"/><path id="right_eyeball" data-name="right eyeball" class="cls-3" d="M340.52,370c2.14-28.87,42.29-28.56,39.05,2.05C378.6,398.25,340.05,395.09,340.52,370Z" transform="translate(-50.56 -63.09)"/><path id="left_eyeball" data-name="left eyeball" class="cls-3" d="M483.93,363.89c8.08-25.11,45.81-13,38.7,12.08C513.72,402.55,478.62,389.26,483.93,363.89Z" transform="translate(-50.56 -63.09)"/><path id="left_eyebrow" data-name="left eyebrow" class="cls-3" d="M465.78,322.59c1.36-6.91,8.85-10,15.07-10,8,0,52.43,11.39,68.73,15.11,12.72,3.86,8.47,14.42,8.47,14.42-1.19,4.08-5,6.1-9.48,5.38-45.24-8-62.63-9.72-70.5-10.82-3.91-.54-7.48-1-10.12-4.34S465,326.66,465.78,322.59Z" transform="translate(-50.56 -63.09)"/><path id="right_eyebrow" data-name="right eyebrow" class="cls-3" d="M308.22,340.73c1.81-5.06,5.41-7.84,10.36-9.64,6.17-2.26,12.45-4.26,18.68-6.37l36.63-12.43c5.43-1.33,11.43,0,14.28,3.22,5.15,5.53,2.26,13.82-1.32,16.85-6.08,4.49-13.07,5.51-20,7.05l-49.52,11.11C311.86,351.76,306.18,346.39,308.22,340.73Z" transform="translate(-50.56 -63.09)"/><path id="left_pupil" data-name="left pupil" d="M496.2,366.09c2.89-9.34,17.72-3.91,15,5.12C507.06,382.62,494.06,377.19,496.2,366.09Z" transform="translate(-50.56 -63.09)"/><path id="right_pupil" data-name="right pupil" d="M354.92,367.83c-.19-7.69,11.74-10,13.81-2.32.89,2.7-.85,5.41-2.05,7.7C363.07,379.93,352.17,374.94,354.92,367.83Z" transform="translate(-50.56 -63.09)"/><path id="right_eye_hilite" data-name="right eye hilite" class="cls-13" d="M352,361.47a8.89,8.89,0,0,1,3.92-3.2,9.52,9.52,0,0,1,5.78-.4c2.05.41,3,3.09,2.37,4.86a3.84,3.84,0,0,1-1.94,2.19,4.2,4.2,0,0,1-2.92.18c.61.11.71.14.29.09h-.17l-.29.05h0l-.36.17,0,0-.1.09a1.64,1.64,0,0,0-.21.25,3.82,3.82,0,0,1-6.31-4.32Z" transform="translate(-50.56 -63.09)"/><path id="left_eye_hilite" data-name="left eye hilite" class="cls-13" d="M493.12,362a10.91,10.91,0,0,1,9.7-5.16,3.69,3.69,0,0,1,0,7.38,4.92,4.92,0,0,0-.77,0h-.18c-.2,0-1,.35-1,.31a3.34,3.34,0,0,0-1.39,1.2,3.69,3.69,0,1,1-6.37-3.72Z" transform="translate(-50.56 -63.09)"/><path id="eye_corner_hilite" data-name="eye corner hilite" class="cls-9" d="M462.48,400.15c-15.52,6-25.6-1.37-24.86-18.13.15-3.24,5.2-7.42,5.05-4.14C442,393,450.72,399.41,464.74,394,467.78,392.85,465.49,399,462.48,400.15Z" transform="translate(-50.56 -63.09)"/></g><g id="nose"><path id="nose_hilite" data-name="nose hilite" class="cls-12" d="M399.52,441.94c-2.32,11.05-4.63,22.6-4.84,33.92-.22,12.37,12.31,15.07,22.23,16.28-8,.56-21,1.26-25-6.42-2.6-5.05-2.42-10.66-2.2-16.2.28-6.93.78-13.85,1.66-20.74a236.49,236.49,0,0,1,23.25-76.34c1.16-2.15,2.44-4.53,2.45-7a7.14,7.14,0,0,0-3.26-6.18l-.4-.25c5.45,2.59,10.79,10.17,7.86,15.81A325.93,325.93,0,0,0,399.52,441.94Z" transform="translate(-50.56 -63.09)"/><path id="nose_shadow" data-name="nose shadow" class="cls-6" d="M418.87,513.62a39.33,39.33,0,0,1-37.4-7.34c-2.21-1.82-2-6.11-.24-8.43a3.09,3.09,0,0,1,.33-.39l.27.28c9.8,9.61,23.28,10.47,36.31,9.63a10.81,10.81,0,0,0,4.16-1.09C422.85,509,421.48,512.82,418.87,513.62Z" transform="translate(-50.56 -63.09)"/><path id="nostril" class="cls-10" d="M449.47,483.92l-.05-.05-1.33-1.4c-2.9-3.05-2.35-8.2.71-10.88,3.37-2.95,7.85-2.18,10.88.72.44.41.85.85,1.24,1.29l.09.11a8.2,8.2,0,0,1,1.2,1.59c4.34,6.37,4.17,14.76.58,21.64-1.94,3.73-7.53,4.22-10.7,2.07-3.77-2.56-4-7-2.07-10.71-.46.87,0-.55.09-.5.05-.42.1-.83.11-1.24.13.67.12.53,0-.43A4.43,4.43,0,0,0,449.47,483.92Z" transform="translate(-50.56 -63.09)"/><path id="nostril-2" data-name="nostril" class="cls-11" d="M449.47,483.92l-.05-.05-1.33-1.4c-2.9-3.05-2.35-8.2.71-10.88,3.37-2.95,7.85-2.18,10.88.72.44.41.85.85,1.24,1.29l.09.11a8.2,8.2,0,0,1,1.2,1.59c4.34,6.37,4.17,14.76.58,21.64-1.94,3.73-7.53,4.22-10.7,2.07-3.77-2.56-4-7-2.07-10.71-.46.87,0-.55.09-.5.05-.42.1-.83.11-1.24.13.67.12.53,0-.43A4.43,4.43,0,0,0,449.47,483.92Z" transform="translate(-50.56 -63.09)"/><path id="nose-2" data-name="nose" class="cls-10" d="M426.34,500.18a7.05,7.05,0,0,1-4,6.1,10.81,10.81,0,0,1-4.16,1.09c-13,.84-26.51,0-36.31-9.63l-.27-.28c-10.27-10.44-7.51-29.1-6.36-42.17,2.89-32.87,12.74-64.76,27.94-94,1.86-3.58,7.08-4.17,10.3-2.32l.4.25a7.14,7.14,0,0,1,3.26,6.18c0,2.49-1.29,4.87-2.45,7a236.49,236.49,0,0,0-23.25,76.34c-.88,6.89-1.38,13.81-1.66,20.74-.22,5.54-.4,11.15,2.2,16.2,3.95,7.68,16.95,7,25,6.42l2.24-.16C423.36,491.71,426.59,496.4,426.34,500.18Z" transform="translate(-50.56 -63.09)"/><path id="nose-3" data-name="nose" class="cls-11" d="M426.34,500.18a7.05,7.05,0,0,1-4,6.1,10.81,10.81,0,0,1-4.16,1.09c-13,.84-26.51,0-36.31-9.63l-.27-.28c-10.27-10.44-7.51-29.1-6.36-42.17,2.89-32.87,12.74-64.76,27.94-94,1.86-3.58,7.08-4.17,10.3-2.32l.4.25a7.14,7.14,0,0,1,3.26,6.18c0,2.49-1.29,4.87-2.45,7a236.49,236.49,0,0,0-23.25,76.34c-.88,6.89-1.38,13.81-1.66,20.74-.22,5.54-.4,11.15,2.2,16.2,3.95,7.68,16.95,7,25,6.42l2.24-.16C423.36,491.71,426.59,496.4,426.34,500.18Z" transform="translate(-50.56 -63.09)"/></g><g id="hair"><path class="cls-3" d="M726.7,357.79c-1,4.08-4.48,16-9,20.72-26.41-28-68.57,2.28-66.8,45.57,2,10.85-4.17,19.89-9,29.19-4.34,9.86-15.1,21.57-25.71,13-12.28-13.3,8.43-30.56,7.74-45.43-.19-10.33-3.24-20.7-6.94-31.42-22.32-54.12-10-102.63-1.74-156.88.52-5.85,1.55-25.72-10.27-18.87-75.22,43.89-202.07,38.87-279.34,4.62-5.94-3.33-7.61-9-3.1-15.8,29-42.83,62.53-66.81,133-82.37C600.86,88.78,763.23,198.66,726.7,357.79Z" transform="translate(-50.56 -63.09)"/><path id="hair_shadow" data-name="hair shadow" class="cls-14" d="M635.52,333.58a421.86,421.86,0,0,0,18.37-86c.58-4.11,1.08-26.27,6.52-31,16.89-6.78,32.32,25.53,36.34,36.32,8.47,23.19,11.67,60.24.1,82.63-6,11.62-13.54,14.09-14.88-.57s-3.26-29.3-5.74-43.83c-5.15,18.85-14.43,38-27.2,48.67C639,348.25,631.1,347.62,635.52,333.58Z" transform="translate(-50.56 -63.09)"/><path id="hair_hilite" data-name="hair hilite" class="cls-15" d="M383.43,195.61c12.21-43.65,107.26-61.1,145.09-50,14.33,4.49,17.54,11.77-.26,15.11q-27,5.09-53.79,11.92c-17.23,4.41-34.08,10.66-51,16.24C416,192,380.1,206,383.43,195.61Z" transform="translate(-50.56 -63.09)"/></g><g id="pencil"><path id="eraser" class="cls-16" d="M804.06,486a12.36,12.36,0,0,1-2.3,3.67l-.16.17a10.34,10.34,0,0,1-14.61.75l-6.45-5.83q4.46-4,8.66-8.45c2.5-2.63,4.91-5.36,7.25-8.23l4.41,4A12.46,12.46,0,0,1,804.06,486Z" transform="translate(-50.56 -63.09)"/><polygon id="pencil_tip" data-name="pencil tip" class="cls-17" points="538.71 217.86 533.93 228.24 523.2 234.76 512.74 216.06 505.35 202.83 519.62 209.26 538.71 217.86"/><path id="lead_tip" data-name="lead tip" d="M570.18,272.35a13.31,13.31,0,0,1-6.88,6.8l-7.39-13.23Z" transform="translate(-50.56 -63.09)"/><path id="pencil_body" data-name="pencil body" class="cls-18" d="M796.45,468.06c-2.34,2.87-4.75,5.6-7.25,8.23q-4.2,4.43-8.66,8.45l-4.32-3.89-202.57-183,8.09-9,7.35-8.14L792,464Z" transform="translate(-50.56 -63.09)"/><path id="erase_band" data-name="erase band" class="cls-19" d="M796.45,468.06c-2.34,2.87-4.75,5.6-7.25,8.23q-4.2,4.43-8.66,8.45l-4.32-3.89c2.94-2.71,5.81-5.55,8.58-8.53,2.46-2.65,4.85-5.41,7.16-8.31Z" transform="translate(-50.56 -63.09)"/><path id="pencil_hilite" data-name="pencil hilite" class="cls-20" d="M796.45,468.06c-2.34,2.87-4.75,5.6-7.25,8.23l-4.4-4L581.74,288.9l7.35-8.14L792,464Z" transform="translate(-50.56 -63.09)"/></g><g id="ear"><path id="outer_ear_shadow" data-name="outer ear shadow" class="cls-7" d="M685.13,528.43c-.23,1.84-.46,3.68-.67,5.52-.35,2.82-.67,5.65-1,8.48a100.51,100.51,0,0,1-40.39-23.51c-6-5.66-6.31-15.25-1.71-21.74-.12.22-.23.43-.32.64a4.8,4.8,0,0,0,.07,4.26,0,0,0,0,0,0,0C650.59,519.3,667.71,528.64,685.13,528.43Z" transform="translate(-50.56 -63.09)"/><path id="inner_ear" data-name="inner ear" class="cls-6" d="M717.53,492c-12.72,15.69-34.39,12.68-49.47,2.39-5.61-3.65-9.55-5.29-15.54-4.63-8-20.5,10.08-17.61,1.33-50,9.28-1.55,3.81-32.39,16.39-44.72,14-18.39,38.82-15.08,49.6,4.38C732.42,424.13,738.14,470.6,717.53,492Z" transform="translate(-50.56 -63.09)"/><path id="inner_ear_shadow" data-name="inner ear shadow" class="cls-7" d="M716.64,402c4.61,7.05,7,16.47,8.42,25.94A49.94,49.94,0,0,0,705.3,403h0a38.53,38.53,0,0,0-14.1-5.6c-8.81-1.52-13.26,1.79-18.58,7.84-6.41,7.28-6.44,17.9-6.06,26.44.26,5.93-6.74,8.87-12.84,8.35-.27,0-.53-.05-.79-.09l.36,0,.4-.07a6.94,6.94,0,0,0,4.94-6.06c.78-5.44,1-11.17,2.25-16.48.69-2.79,1.48-5.55,2.28-8.3a34.64,34.64,0,0,1,6.17-11.19,33.37,33.37,0,0,1,8.81-7.57c.77-.48,1.57-.92,2.38-1.33,9.83-4.95,19.26-3.16,27,2.89A41.38,41.38,0,0,1,716.64,402Z" transform="translate(-50.56 -63.09)"/><path id="outer_ear" data-name="outer ear" class="cls-8" d="M741.75,479.84c-34.7,98.18-138.57,19.78-88.82,6.94,5.54-.43,9.1,1.07,14.32,4.41,14.37,9.64,35,12.54,47.19-2.25,20.67-19.06,15.2-80.52-6.89-97.11-11.21-10-29.18-5.74-38.22,6-8.15,9.82-9.32,23.66-10.7,36-.65,4.6-5,7.91-8.36,5.11-2.66-5.48-1.15-12.33-1.09-18.26.67-28.47,23.12-63.72,54.81-55.27C743,379.07,753.41,444.79,741.75,479.84Z" transform="translate(-50.56 -63.09)"/><path id="outer_ear_hilite" data-name="outer ear hilite" class="cls-12" d="M737.47,402.71q-2.67-4.6-5.45-9.12a48.37,48.37,0,0,0-14.14-15.29,34.71,34.71,0,0,0-5.39-2.92c-.46-.2-.93-.39-1.4-.56a33.38,33.38,0,0,0-9.89-2.09,38.88,38.88,0,0,0-6.17.13c-8.1.8-15.44,4.83-21.57,10.49a60.06,60.06,0,0,0-11,13.9c-5.17,8.95-7.83,19.12-8.79,29.52,0,.48-.09,1-.12,1.43-.22,2.73-.32,5.48-.32,8.22,0,1.17,0,2.35,0,3.52l-.36,0a1.93,1.93,0,0,1-.48,0l-.26,0a2.41,2.41,0,0,1-.37-.07l-.36-.11a2.59,2.59,0,0,1-.38-.17h0a3.45,3.45,0,0,1-.41-.25,2.17,2.17,0,0,1-.39-.41,1.18,1.18,0,0,1-.17-.24.63.63,0,0,1-.13-.2,2.64,2.64,0,0,1-.2-.37c-.07-.16-.14-.32-.2-.49,0,0,0,0,0,0A11.87,11.87,0,0,1,649,435c0-.39-.08-.78-.1-1.17,0-.11,0-.22,0-.33,0-.32,0-.64,0-.95,0-1.07,0-2.14,0-3.2q0-1.15,0-2.31c0-1,0-1.94.1-2.9,0-.54,0-1.07.09-1.61s.08-1.24.14-1.86.08-1,.14-1.53.11-1.24.19-1.86.15-1.25.24-1.88c0,0,0-.07,0-.11.07-.46.13-.92.21-1.38s.12-.85.2-1.27c.1-.64.21-1.28.34-1.92.26-1.41.56-2.82.89-4.21.24-1,.51-2,.79-3,.15-.56.31-1.12.48-1.67s.29-1,.46-1.48.36-1.15.56-1.71a1.43,1.43,0,0,1,.09-.27c.17-.51.35-1,.54-1.52,0-.1.07-.19.1-.28.45-1.22.93-2.42,1.44-3.62,5.27-12.39,14.83-21,25.85-26.11A30.23,30.23,0,0,1,694.5,364c.45,0,.9,0,1.34,0H696q.31,0,.63,0l.32,0,.38,0,.62.06.62.07c.45.05.9.11,1.34.19s.89.15,1.33.24l.66.14.71.16.86.22.57.16.61.18.35.11.18.05,1.08.37.82.31.87.34.36.15.41.18c.45.2.9.4,1.34.62s.88.44,1.31.67l.5.27.54.3h0c.44.24.87.5,1.3.77s.85.54,1.27.83a41.45,41.45,0,0,1,5.34,4.35c6.67,6.37,11.78,15,15.53,23.75C736.38,400,736.94,401.34,737.47,402.71Z" transform="translate(-50.56 -63.09)"/></g></g></g></g></svg>